<svg width="121" height="123" viewBox="0 0 121 123" fill="none" xmlns="http://www.w3.org/2000/svg">
<path d="M14.6962 38.9675H1.47693V1.41538H120.062V38.9675H110.341C110.925 30.0676 104.665 12.8877 74.9605 15.3682V47.2359C74.1181 48.9011 74.4551 53.0582 82.5422 56.3656C79.6261 57.801 74.0274 61.2232 74.9605 63.4281V102.014C74.7013 104.081 77.3322 107.871 89.9294 106.493V121.996H34.3307V107.354C35.4323 107.067 39.3074 106.493 45.9948 106.493C50.6604 102.221 50.79 98.9706 50.2716 97.8796V63.4281C49.0404 61.361 45.6448 57.0546 41.9123 56.3656C41.9123 54.9875 50.2716 54.2985 50.2716 47.2359V15.3682C38.4131 13.4734 14.6962 15.5405 14.6962 38.9675Z" fill="url(#paint0_linear_21_29)"/>
<path d="M74.9605 63.4281C74.0274 61.2232 79.6261 57.801 82.5422 56.3656C74.4551 53.0582 74.1181 48.9011 74.9605 47.2359V15.3682C104.665 12.8877 110.925 30.0676 110.341 38.9675H120.062V1.41538H1.47693V38.9675H14.6962C14.6962 15.5405 38.4131 13.4734 50.2716 15.3682M74.9605 63.4281C74.9605 64.6684 74.9605 89.6687 74.9605 102.014M74.9605 63.4281V102.014M74.9605 102.014C74.7013 104.081 77.3322 107.871 89.9294 106.493V121.996H34.3307V107.354C35.4323 107.067 39.3074 106.493 45.9948 106.493C50.6604 102.221 50.79 98.9706 50.2716 97.8796V63.4281C49.0404 61.361 45.6448 57.0546 41.9123 56.3656C41.9123 54.9875 50.2716 54.2985 50.2716 47.2359M50.2716 47.2359C50.2716 41.5859 50.2716 23.6366 50.2716 15.3682M50.2716 47.2359V15.3682" stroke="black"/>
<path d="M53.4443 54.8502L45.1425 54.5773C45.0521 54.8502 44.9256 55.378 45.1425 55.3052C45.4136 55.2142 45.9896 56.5184 46.2946 56.3971C46.5995 56.2757 47.8872 57.9742 48.0905 58.1259C48.9579 57.9075 49.6492 59.6322 49.8864 60.5219C51.0723 61.3004 53.4443 62.8209 53.4443 62.6753C55.0978 59.8365 57.4314 60.5623 58.3914 61.2801C59.6339 62.918 62.0849 66.1996 61.9493 66.2239C61.7799 66.2542 63.0675 69.0142 63.3386 68.9233C63.6097 68.8323 65.575 69.8938 65.9816 69.8938C67.032 69.8331 68.2858 70.3184 68.4552 70.3184C67.8046 66.6546 68.5456 65.2938 68.9974 65.0714C70.5787 64.121 73.7412 62.1294 73.7412 61.7654C73.7412 61.4015 75.4355 60.5623 76.2826 60.1883C75.9437 59.9052 75.4287 59.3997 76.0793 59.6423C76.5876 59.43 76.6553 58.3382 76.5876 58.1259C76.5198 57.9135 77.0619 56.761 76.8586 56.7004C76.6553 56.6397 76.1809 55.1535 76.0793 55.0322C75.998 54.9352 75.6388 54.4256 75.4694 54.183C75.4016 53.2428 75.266 51.338 75.266 51.241C75.266 51.1439 75.0176 50.6344 74.8933 50.3918C74.2382 50.3412 72.8806 50.1431 72.6908 49.7548C72.5011 49.3666 71.1208 49.5931 70.4544 49.7548C70.0478 50.3614 68.5682 50.0076 67.8792 49.7548C68.0373 50.0177 68.1977 50.4524 67.5742 50.0885C66.9507 49.7245 66.4108 49.8357 66.2188 49.9368H65.88C65.7896 49.8054 65.5682 49.5425 65.4056 49.5425C64.0231 49.6638 63.0675 49.1078 62.7626 48.8146C61.6783 48.669 61.1813 48.4911 61.0683 48.4203V43.4462H53.7153L53.4443 54.8502Z" fill="white" stroke="black"/>
<defs>
<linearGradient id="paint0_linear_21_29" x1="72.7538" y1="53.1385" x2="-180.815" y2="-83.1077" gradientUnits="userSpaceOnUse">
<stop stop-color="#CC0101"/>
<stop offset="0.484375" stop-color="#CC0101" stop-opacity="0"/>
</linearGradient>
</defs>
</svg>
