<svg width="116" height="99" viewBox="0 0 116 99" fill="none" xmlns="http://www.w3.org/2000/svg">
<g filter="url(#filter0_b_18_7)">
<path d="M0.800367 98.1895V80.2984H9.31779V19.1527H0.676926V1.26154H47.7079V19.1527H39.1905V41.5693L68.5694 19.1527H64.6193V1.26154H114.983L115.477 19.1527H106.713L73.8774 44.3056L105.108 80.2984H114.983L115.353 98.4H64.3724V80.4036H71.1617L53.6331 59.9866L39.3139 71.0371V80.4036H47.7079V98.1895H0.800367Z" fill="#000066"/>
<path d="M0.800367 98.1895V80.2984H9.31779V19.1527H0.676926V1.26154H47.7079V19.1527H39.1905V41.5693L68.5694 19.1527H64.6193V1.26154H114.983L115.477 19.1527H106.713L73.8774 44.3056L105.108 80.2984H114.983L115.353 98.4H64.3724V80.4036H71.1617L53.6331 59.9866L39.3139 71.0371V80.4036H47.7079V98.1895H0.800367Z" stroke="black"/>
</g>
<path d="M71.1336 95.5003H79.0168V94.6719L80.2486 94.879L102.543 95.0861L103.159 94.4648L104.884 93.947L106.485 93.1185L106.608 92.7042L107.347 92.29L107.594 91.8758L111.043 89.5975L110.55 89.3904L110.057 89.0797L109.564 88.8726L108.949 88.5619C108.497 88.0096 107.594 86.8635 107.594 86.6978C108.579 84.8338 106.731 84.4195 106.608 84.316C106.116 83.7982 105.869 83.591 105.623 83.3839C105.426 83.2182 105.048 83.7982 104.884 84.1088C104.145 84.1088 103.775 84.316 103.529 84.1088C103.233 83.5289 102.256 83.8672 101.804 84.1088C101.64 83.8672 101.262 83.3839 101.065 83.3839C99.2916 83.7153 98.7661 82.7626 98.725 82.2448L97.7396 81.6234C97.4522 81.727 96.8774 81.872 96.8774 81.6234C96.8774 81.3749 96.0562 81.5199 95.6456 81.6234L95.892 83.1768C95.8509 83.2458 95.4732 83.4668 94.2907 83.7982C93.4284 83.0732 92.8126 84.1434 92.8126 84.6266C91.9093 85.3861 90.1273 86.9878 90.2259 87.3192C90.2936 87.5471 89.7274 87.5555 89.3275 87.5343C89.5435 87.602 89.4735 87.5762 89.1173 87.5263C88.7849 87.4797 89.0006 87.5169 89.3275 87.5343C89.0953 87.4615 88.5325 87.2805 87.6392 86.9049C87.3928 87.3192 86.6538 88.5619 86.0379 88.1476C85.4466 87.3192 84.4776 88.0786 84.0671 88.5619L82.3426 87.837C81.9731 87.9405 81.2094 88.1476 81.1108 88.1476H79.8791C79.9201 88.2857 79.9283 88.5619 79.6327 88.5619C78.5488 88.479 78.6884 89.632 78.8937 90.2188L76.6765 90.6331L76.9229 91.8758C76.7997 92.3245 76.5041 93.0356 76.307 92.29C73.942 90.8816 73.1044 91.9103 72.9812 92.6007C73.1865 92.7733 73.5478 93.1806 73.3508 93.4292C73.1044 93.7398 73.3508 95.5003 72.6117 94.879C72.0204 94.3819 71.3799 95.0861 71.1336 95.5003Z" fill="white"/>
<path d="M79.8791 88.1476C79.9201 88.2857 79.9283 88.5619 79.6327 88.5619C78.5488 88.479 78.6884 89.632 78.8937 90.2188L76.6765 90.6331L76.9229 91.8758C76.7997 92.3245 76.5041 93.0356 76.307 92.29C73.942 90.8816 73.1044 91.9103 72.9812 92.6007C73.1865 92.7733 73.5478 93.1806 73.3508 93.4292C73.1044 93.7398 73.3508 95.5003 72.6117 94.879C72.0204 94.3819 71.3799 95.0861 71.1336 95.5003H79.0168V94.6719L80.2486 94.879L102.543 95.0861L103.159 94.4648L104.884 93.947L106.485 93.1185L106.608 92.7042L107.347 92.29L107.594 91.8758L111.043 89.5975L110.55 89.3904L110.057 89.0797L109.564 88.8726L108.949 88.5619C108.497 88.0096 107.594 86.8635 107.594 86.6978C108.579 84.8338 106.731 84.4195 106.608 84.316C106.116 83.7982 105.869 83.591 105.623 83.3839C105.426 83.2182 105.048 83.7982 104.884 84.1088C104.145 84.1088 103.775 84.316 103.529 84.1088C103.233 83.5289 102.256 83.8672 101.804 84.1088C101.64 83.8672 101.262 83.3839 101.065 83.3839C99.2916 83.7153 98.7661 82.7626 98.725 82.2448L97.7396 81.6234C97.4522 81.727 96.8774 81.872 96.8774 81.6234C96.8774 81.3749 96.0562 81.5199 95.6456 81.6234L95.892 83.1768C95.8509 83.2458 95.4732 83.4668 94.2907 83.7982C93.4284 83.0732 92.8126 84.1434 92.8126 84.6266C91.9093 85.3861 90.1273 86.9878 90.2259 87.3192C90.2936 87.5471 89.7274 87.5555 89.3275 87.5343M79.8791 88.1476C80.2486 88.1476 81.0123 88.1476 81.1108 88.1476M79.8791 88.1476H81.1108M81.1108 88.1476C81.2094 88.1476 81.9731 87.9405 82.3426 87.837L84.0671 88.5619C84.4776 88.0786 85.4466 87.3192 86.0379 88.1476C86.6538 88.5619 87.3928 87.3192 87.6392 86.9049C88.5325 87.2805 89.0953 87.4615 89.3275 87.5343M89.3275 87.5343C89.5435 87.602 89.4735 87.5762 89.1173 87.5263C88.7849 87.4797 89.0006 87.5169 89.3275 87.5343Z" stroke="black"/>
<defs>
<filter id="filter0_b_18_7" x="-3.82307" y="-3.23846" width="123.814" height="106.138" filterUnits="userSpaceOnUse" color-interpolation-filters="sRGB">
<feFlood flood-opacity="0" result="BackgroundImageFix"/>
<feGaussianBlur in="BackgroundImageFix" stdDeviation="2"/>
<feComposite in2="SourceAlpha" operator="in" result="effect1_backgroundBlur_18_7"/>
<feBlend mode="normal" in="SourceGraphic" in2="effect1_backgroundBlur_18_7" result="shape"/>
</filter>
</defs>
</svg>
